<?xml version="1.0" ?><!DOCTYPE svg  PUBLIC '-//W3C//DTD SVG 1.1//EN'  'http://www.w3.org/Graphics/SVG/1.1/DTD/svg11.dtd'><svg height="512px" style="enable-background:new 0 0 512 512;" version="1.1" viewBox="0 0 512 512" width="512px" xml:space="preserve" xmlns="http://www.w3.org/2000/svg" xmlns:xlink="http://www.w3.org/1999/xlink"><g id="logo_x2C__orange_x2C_"><g><path d="M442.766,116.212L281.717,23.219c-8.076-4.666-17.064-7.053-26.085-7.206v-0.008    c-0.015,0-0.021,0-0.033,0c-0.011,0-0.025,0-0.036,0v0.008c-9.018,0.153-18.006,2.541-26.089,7.206l-161.05,92.979    c-16.724,9.659-27.03,27.505-27.03,46.824v185.957c0,19.32,10.306,37.164,27.03,46.816l161.05,92.994    c8.083,4.658,17.064,7.045,26.089,7.205l0,0c0.011,0,0.025,0,0.036,0c0.012,0,0.019,0,0.033,0l0,0    c9.013-0.16,18.009-2.547,26.085-7.205l161.049-92.986c16.729-9.66,27.039-27.498,27.039-46.816V163.022    C469.805,143.709,459.494,125.857,442.766,116.212z" style="fill:#F15836;"/><path d="M267.033,198.354c-6.695,0-12.165,5.447-12.165,12.143v72.417c0,28.49-23.164,51.592-51.681,51.592    c-28.523,0-51.713-23.131-51.713-51.592v-30.309h39.545v30.309c0,6.725,5.469,12.143,12.168,12.143    c6.695,0,12.135-5.418,12.135-12.143v-72.417c0-28.461,23.19-51.6,51.71-51.6c28.52,0,51.709,23.139,51.709,51.6v13.786    l-23.803,7.645l-15.764-7.645v-13.786C279.176,203.801,273.729,198.354,267.033,198.354z M330.885,334.506    c-28.52,0-51.709-23.131-51.709-51.592v-30.922l15.764,7.616l23.803-7.616v30.922c0,6.725,5.439,12.143,12.143,12.143    c6.695,0,12.135-5.418,12.135-12.143v-30.309h39.545v30.309h0.029C382.594,311.404,359.375,334.506,330.885,334.506z" style="fill:#FFFFFF;"/></g></g><g id="Layer_1"/></svg>